<svg xmlns="http://www.w3.org/2000/svg" width="200" height="201" viewBox="0 0 200 201" fill="none">
<g clip-path="url(#clip0_714_1869)">
<path d="M190.735 153.616C190.746 161.57 188.156 169.309 183.359 175.653C179.949 180.181 175.533 183.854 170.46 186.382C165.386 188.911 159.794 190.224 154.126 190.22C145.97 190.235 138.045 187.514 131.618 182.492C127.222 179.072 123.666 174.692 121.222 169.688C118.778 164.683 117.509 159.186 117.515 153.616C117.515 133.398 133.905 117.007 154.126 117.007C174.346 117.007 190.735 133.394 190.735 153.616Z" fill="white" stroke="#1F1F1F" stroke-linecap="round" stroke-linejoin="round"/>
<path d="M183.359 175.659C179.949 180.187 175.533 183.86 170.459 186.388C165.386 188.916 159.794 190.23 154.126 190.225C145.969 190.238 138.044 187.515 131.618 182.492L131.824 182.251C136.022 174.142 144.24 175.368 152.844 175.368H183.3L183.359 175.659Z" fill="#C2E7FF" stroke="#1F1F1F" stroke-linecap="round" stroke-linejoin="round"/>
<path d="M24.8573 170.986H57.8906C64.9573 170.986 68.4962 162.442 63.498 157.444L30.4665 124.412C25.4665 119.412 16.9258 122.953 16.9258 130.021V163.053C16.9255 164.095 17.1305 165.126 17.529 166.089C17.9275 167.051 18.5117 167.926 19.2482 168.662C19.9847 169.399 20.8592 169.984 21.8216 170.382C22.784 170.781 23.8155 170.986 24.8573 170.986Z" fill="#F6B704" stroke="#F6B704" stroke-linecap="round" stroke-linejoin="round"/>
<path d="M82.5279 54.3513C82.5339 59.2916 81.5372 64.1816 79.5983 68.7254C76.78 75.3244 72.085 80.9499 66.0967 84.9033C60.1084 88.8566 53.0906 90.9636 45.915 90.9625C40.2221 90.9677 34.6066 89.6429 29.5164 87.0936C24.4262 84.5443 20.002 80.8411 16.5965 76.2791C11.8516 69.9544 9.2926 62.258 9.30571 54.3513C9.30571 34.1328 25.6964 17.7402 45.915 17.7402C66.1335 17.7402 82.5279 34.1347 82.5279 54.3513Z" fill="white" stroke="#1F1F1F" stroke-linecap="round" stroke-linejoin="round"/>
<path d="M79.5975 68.725C76.7792 75.324 72.0843 80.9495 66.096 84.9029C60.1076 88.8563 53.0898 90.9632 45.9142 90.9621C40.2213 90.9673 34.6059 89.6425 29.5157 87.0932C24.4255 84.544 20.0012 80.8407 16.5957 76.2787C21.8105 67.4843 25.5179 62.7824 30.1031 62.8398C32.4087 62.8695 34.9346 64.0972 37.9864 66.6102C37.9864 66.6102 40.5198 61.7491 40.5531 56.8843C41.5297 57.1788 42.5442 57.3279 43.5642 57.3269C45.9084 57.3303 48.1851 56.542 50.0253 55.0898C50.5124 57.0269 51.4846 59.8232 53.292 61.7565C57.5513 59.6195 60.8716 57.0454 64.2179 56.3528C68.1364 55.5435 72.105 57.301 77.6772 65.3102C77.6864 65.3028 78.4716 66.5824 79.5975 68.725Z" fill="#C2E7FF" stroke="#1F1F1F" stroke-linecap="round" stroke-linejoin="round"/>
<path d="M64.2276 56.3454C61.3072 72.3861 42.8461 89.0287 30.1035 62.8398C32.4091 62.8695 34.935 64.0972 37.9868 66.6102C38.7279 65.1057 39.3268 63.5353 39.7757 61.9195C40.256 60.2827 40.5175 58.5896 40.5535 56.8843C41.5301 57.1788 42.5447 57.3279 43.5646 57.3269C45.9088 57.3303 48.1855 56.542 50.0257 55.0898C50.1165 55.4454 50.2239 55.8306 50.348 56.2398C50.9035 58.0287 51.8165 60.1787 53.2924 61.7491C57.5498 59.6121 60.872 57.038 64.2276 56.3454Z" fill="#9A402D" stroke="#1F1F1F" stroke-linecap="round" stroke-linejoin="round"/>
<path d="M53.9924 46.8995C53.9926 48.2689 53.7231 49.625 53.1991 50.8903C52.6751 52.1556 51.9071 53.3052 50.9387 54.2736C49.9703 55.2419 48.8207 56.01 47.5554 56.534C46.2902 57.0579 44.9341 57.3275 43.5646 57.3272C41.5116 57.3279 39.5041 56.7222 37.7939 55.5863C36.0837 54.4504 34.7471 52.8347 33.9516 50.9421C33.4132 49.6624 33.1368 48.2878 33.1387 46.8995C33.1387 44.1342 34.2371 41.4821 36.1922 39.5266C38.1474 37.571 40.7993 36.4722 43.5646 36.4717C46.0917 36.4715 48.5329 37.389 50.4342 39.0537C52.3356 40.7183 53.5678 43.0168 53.9016 45.5217C53.9627 45.9784 53.993 46.4387 53.9924 46.8995Z" fill="#9A402D" stroke="#1F1F1F" stroke-linecap="round" stroke-linejoin="round"/>
<path d="M140.846 135.683C136.477 147.788 125.957 152.081 135.105 152.281C135.105 152.281 129.526 171.601 146.903 166.196L143.726 175.37H173.846C173.846 175.37 174.474 140.227 168.661 138.816C162.848 137.405 140.846 135.683 140.846 135.683Z" fill="#F6D7C0" stroke="#191C1E" stroke-linecap="round" stroke-linejoin="round"/>
<path d="M140.846 135.683C151.587 138.148 146.007 143.599 150.083 149.262C151.161 150.759 153.25 150.929 155.383 148.909C160.427 143.675 171.527 145.672 161.864 155.525C156.59 160.896 156.909 164.903 158.24 170.986H173.864C173.864 170.986 172.307 160.077 184.061 152.24C195.814 144.403 187.438 132.122 177.644 130.909C167.85 129.696 163.553 130.266 161.318 128.949C150.872 122.792 151.431 118.688 144.714 121.02C137.998 123.351 140.846 135.683 140.846 135.683Z" fill="#3C4043" stroke="#191C1E" stroke-linecap="round" stroke-linejoin="round"/>
<path d="M142.62 65.3027H53.7312C52.6073 65.3018 51.4942 65.5221 50.4553 65.9509C49.4173 66.3808 48.4736 67.0099 47.6775 67.8027C46.8838 68.598 46.2545 69.5419 45.8257 70.5805C45.3946 71.6182 45.173 72.7309 45.1738 73.8546V151.505C45.1728 152.4 45.4412 153.275 45.9442 154.016C46.4438 154.755 47.1533 155.328 47.9812 155.66C48.8137 155.992 49.7268 156.065 50.6016 155.871C51.4759 155.679 52.2718 155.227 52.8849 154.575L69.9405 136.464H142.616C143.739 136.464 144.852 136.243 145.889 135.812C146.928 135.385 147.872 134.755 148.666 133.96C149.461 133.165 150.09 132.221 150.518 131.182C150.948 130.145 151.169 129.033 151.168 127.91V73.7953C151.152 71.5378 150.245 69.378 148.644 67.7861C147.042 66.1961 144.877 65.3035 142.62 65.3027Z" fill="white" stroke="#1F1F1F" stroke-linecap="round" stroke-linejoin="round"/>
<path d="M149.675 82.9055C160.054 82.9055 168.468 74.4918 168.468 64.1129C168.468 53.734 160.054 45.3203 149.675 45.3203C139.297 45.3203 130.883 53.734 130.883 64.1129C130.883 74.4918 139.297 82.9055 149.675 82.9055Z" fill="#F9DEDC" stroke="#F9DEDC" stroke-linecap="round" stroke-linejoin="round"/>
<path d="M149.896 56.249V71.9731" stroke="#1F1F1F" stroke-linecap="round" stroke-linejoin="round"/>
<path d="M157.538 63.8906H141.812" stroke="#1F1F1F" stroke-linecap="round" stroke-linejoin="round"/>
<path d="M146.903 166.196C149.592 165.455 152.007 164.227 153.301 163.329L146.903 166.196Z" fill="white"/>
<path d="M146.903 166.196C149.592 165.455 152.007 164.227 153.301 163.329" stroke="#1F1F1F" stroke-linecap="round" stroke-linejoin="round"/>
<path d="M143.77 144.098C143.827 143.716 143.708 143.381 143.505 143.351C143.301 143.321 143.091 143.607 143.034 143.989C142.977 144.372 143.096 144.706 143.3 144.736C143.503 144.766 143.714 144.48 143.77 144.098Z" fill="black" stroke="#1F1F1F" stroke-linecap="round" stroke-linejoin="round"/>
<path d="M98.1924 86.1256V76.2793" stroke="#1F1F1F" stroke-linecap="round" stroke-linejoin="round"/>
<path d="M108.736 90.5109L115.697 83.5498" stroke="#1F1F1F" stroke-linecap="round" stroke-linejoin="round"/>
<path d="M113.091 101.07H122.937" stroke="#1F1F1F" stroke-linecap="round" stroke-linejoin="round"/>
<path d="M108.703 111.612L115.666 118.575" stroke="#1F1F1F" stroke-linecap="round" stroke-linejoin="round"/>
<path d="M98.1465 115.968V125.814" stroke="#1F1F1F" stroke-linecap="round" stroke-linejoin="round"/>
<path d="M87.6017 111.581L80.6406 118.544" stroke="#1F1F1F" stroke-linecap="round" stroke-linejoin="round"/>
<path d="M83.2477 101.023H73.4014" stroke="#1F1F1F" stroke-linecap="round" stroke-linejoin="round"/>
<path d="M87.6348 90.4787L80.6719 83.5176" stroke="#1F1F1F" stroke-linecap="round" stroke-linejoin="round"/>
<path d="M99.2217 45.3181C117.514 10.7033 149.525 -8.07815 154.125 38.0348C159.431 28.5348 165.398 23.0015 172.262 22.8756" stroke="#1F1F1F" stroke-linecap="round" stroke-linejoin="round"/>
<path d="M53.9016 45.5217C49.3924 45.3958 45.9183 42.3087 45.9183 42.3087C44.9924 44.5976 39.6646 48.7013 33.9516 50.9421C33.4132 49.6624 33.1368 48.2878 33.1387 46.8995C33.1387 44.1342 34.2371 41.4821 36.1922 39.5266C38.1474 37.571 40.7993 36.4722 43.5646 36.4717C46.0917 36.4715 48.5329 37.389 50.4342 39.0537C52.3356 40.7183 53.5678 43.0168 53.9016 45.5217Z" fill="#FF8A69" stroke="#1F1F1F" stroke-linecap="round" stroke-linejoin="round"/>
<path d="M23.1996 17.7402C21.1314 19.2083 19.7311 21.4377 19.3067 23.9382C18.8824 26.4387 19.4687 29.0054 20.9367 31.0736L24.4033 35.9551C25.8714 38.0232 28.1009 39.4236 30.6013 39.8479C33.1018 40.2723 35.6685 39.686 37.7367 38.218C39.8045 36.7497 41.2045 34.5202 41.6288 32.0199C42.0532 29.5196 41.4672 26.953 39.9997 24.8847L36.5348 20.0032C35.8079 18.9789 34.8863 18.1078 33.8227 17.4397C32.7591 16.7716 31.5743 16.3195 30.336 16.1094C29.0977 15.8993 27.8301 15.9351 26.6056 16.2149C25.3811 16.4948 24.2238 17.0131 23.1996 17.7402Z" fill="#FF8A69" stroke="#1F1F1F" stroke-linecap="round" stroke-linejoin="round"/>
<path d="M44.9502 50.1572C45.9169 54.4665 44.1409 54.4813 45.9946 54.6387" stroke="#1F1F1F" stroke-linecap="round" stroke-linejoin="round"/>
<path d="M48.0518 49.1699L48.0962 49.3625" stroke="#1F1F1F" stroke-linecap="round" stroke-linejoin="round"/>
<path d="M41.9404 50.6162L41.9849 50.807" stroke="#1F1F1F" stroke-linecap="round" stroke-linejoin="round"/>
<path d="M50.3476 56.2398C46.7606 58.5621 43.2309 60.4991 39.7754 61.9195C40.2556 60.2827 40.5172 58.5896 40.5532 56.8843C41.5297 57.1788 42.5443 57.3279 43.5643 57.3269C45.9085 57.3303 48.1852 56.542 50.0254 55.0898C50.1161 55.4454 50.2235 55.8324 50.3476 56.2398Z" fill="#1F1F1F" stroke="#1F1F1F" stroke-linecap="round" stroke-linejoin="round"/>
<path d="M183.359 175.658C179.949 180.186 175.533 183.86 170.459 186.388C165.386 188.916 159.794 190.229 154.126 190.225C145.969 190.238 138.044 187.515 131.618 182.492" stroke="#1F1F1F" stroke-linecap="round" stroke-linejoin="round"/>
<path d="M24.8905 170.944C29.2904 170.944 32.8572 167.377 32.8572 162.977C32.8572 158.578 29.2904 155.011 24.8905 155.011C20.4906 155.011 16.9238 158.578 16.9238 162.977C16.9238 167.377 20.4906 170.944 24.8905 170.944Z" fill="white" stroke="#1F1F1F" stroke-linecap="round" stroke-linejoin="round"/>
</g>
<defs>
<clipPath id="clip0_714_1869">
<rect width="182.263" height="180.42" fill="white" transform="translate(8.88867 10.2217)"/>
</clipPath>
</defs>
</svg>