<svg xmlns="http://www.w3.org/2000/svg" width="200" height="201" viewBox="0 0 200 201" fill="none">
<g clip-path="url(#clip0_714_2002)">
<path d="M167.533 122.011C167.872 123.089 168.181 145.659 168.15 146.737C168.118 147.815 167.372 148.743 167.372 148.743L160.661 145.817C160.661 145.817 160.629 145.243 161.307 144.493C162.168 143.539 162.603 142.059 161.922 139.996C161.24 137.933 159.12 131.622 158.72 127.033C158.32 122.444 158.483 121.396 160.335 120.719C162.187 120.041 167.533 122.011 167.533 122.011Z" fill="#C99069" stroke="#1F1F1F" stroke-linecap="round" stroke-linejoin="round"/>
<path d="M181.544 178.082C181.544 178.082 184.163 144.424 184.424 140.002C184.579 137.358 182.898 136.987 182.077 139.204C180.781 142.698 175.816 150.739 171.937 155.174C168.057 159.61 159.005 161.639 159.005 161.639L157.709 178.082H181.544Z" fill="white" stroke="#1F1F1F" stroke-linecap="round" stroke-linejoin="round"/>
<path d="M73.0983 157.632C84.3835 157.191 167.565 154.854 172.737 154.298L160.298 178.082H70.5205C70.5205 178.082 58.8742 158.187 73.0983 157.632Z" fill="white" stroke="#1F1F1F" stroke-linecap="round" stroke-linejoin="round"/>
<path d="M25.6812 143.965C26.0905 142.817 29.8682 142.483 33.6442 142.324C35.834 142.221 38.028 142.249 40.2145 142.406L39.146 149.467C39.146 149.467 34.959 148.893 30.7719 147.907C27.1868 147.063 25.1386 145.485 25.6812 143.965Z" fill="#1F1F1F" stroke="#1F1F1F" stroke-linecap="round" stroke-linejoin="round"/>
<path d="M49.4926 118.348C49.4926 116.706 48.424 115.063 46.2074 112.519C44.9111 111.02 42.6777 109.043 42.6777 106.037C42.6777 102.096 46.1685 99.0779 48.4185 98.2168C50.6685 97.3557 53.1148 97.4335 55.0851 98.5723C55.5117 98.7868 55.9012 99.0681 56.2388 99.4057C56.7757 100.001 57.2631 100.64 57.6963 101.315C58.3722 102.363 59.6166 103.68 62.1407 104.702C67.8814 107.022 76.0592 104.517 79.9185 104.928C83.7777 105.339 84.9481 107.843 82.8129 112.52C80.6777 117.198 77.2296 120.567 79.9407 123.446C82.6518 126.326 88.7981 123.77 92.4814 122.665C98.024 120.998 102.557 122.539 102.52 126.739C102.48 131.256 95.2537 138.193 87.0018 144.72C84.174 146.958 66.6314 156.217 60.0703 158.515C53.5092 160.813 50.5444 146.198 50.3814 137.004C50.2185 127.809 49.4926 118.348 49.4926 118.348Z" fill="#C99069" stroke="#1F1F1F" stroke-linecap="round" stroke-linejoin="round"/>
<path d="M69.5261 147.085L68.4594 141.502C68.4594 141.502 74.4798 137.447 77.8205 135.595C80.0428 134.363 82.089 133.787 82.5816 134.113C82.5816 134.113 74.5557 123.972 71.9909 120.565C69.4261 117.158 67.0631 116.378 62.8761 116.861C58.689 117.345 48.3428 118.585 43.1705 120.31C37.9983 122.034 35.2872 123.758 33.0705 128.191C30.8539 132.624 25.6816 143.956 25.6816 143.956C26.0909 142.808 29.8687 142.474 33.6446 142.315C35.8344 142.212 38.0284 142.239 40.215 142.397L39.1465 149.458H39.0965L36.765 164.165C36.765 164.165 38.4835 160.224 42.4316 158.743C42.4316 158.743 45.6335 157 51.052 155.541C56.7928 153.998 64.8613 152.661 68.7872 149.876C69.1576 149.615 69.5372 149.345 69.9298 149.069L69.5594 147.065L69.5261 147.085Z" fill="#C2E7FF" stroke="#C2E7FF" stroke-linecap="round" stroke-linejoin="round"/>
<path d="M57.0578 154.072C54.9578 154.578 52.8856 155.05 51.0523 155.543C45.6337 157.002 42.4319 158.743 42.4319 158.743C38.4893 160.224 36.7652 164.163 36.7652 164.163C36.643 168.904 43.7541 168.226 49.5745 165.948C53.8245 164.282 61.706 161.7 65.5856 157.819C68.6152 154.793 62.8208 153.641 57.0578 154.072Z" fill="#1F1F1F" stroke="#1F1F1F" stroke-linecap="round" stroke-linejoin="round"/>
<path d="M68.459 141.502C68.459 141.502 74.4794 137.447 77.8201 135.595C80.0423 134.363 82.0886 133.787 82.5812 134.113C83.8127 134.934 78.4757 139.613 75.1108 142.487C71.746 145.361 69.5257 147.086 69.5257 147.086L68.459 141.502Z" fill="#1F1F1F" stroke="#1F1F1F" stroke-linecap="round" stroke-linejoin="round"/>
<path d="M163.298 160.469C167.733 152.422 172.002 150.698 173.972 151.602C173.972 151.602 122.121 129.009 115.841 126.232C113.549 125.217 111.037 124.798 108.539 125.013C106.042 125.228 103.639 126.071 101.554 127.463C95.3576 131.595 77.8205 143.472 68.7909 149.871C64.865 152.648 56.7928 153.993 51.0557 155.535C45.6335 157.002 42.4316 158.743 42.4316 158.743C44.8946 171.306 49.3279 176.109 54.7483 178.08H75.6853C75.6853 178.08 78.6483 177.958 81.8428 175.739C85.0372 173.521 111.402 148.146 111.402 148.146L160.871 175.582C158.963 174.267 159.067 168.143 163.298 160.469Z" fill="white" stroke="#1F1F1F" stroke-linecap="round" stroke-linejoin="round"/>
<path d="M69.9298 149.069L65.9131 127.461" stroke="#1F1F1F" stroke-linecap="round" stroke-linejoin="round"/>
<path d="M36.7646 164.163L42.0202 130.254" stroke="#1F1F1F" stroke-linecap="round" stroke-linejoin="round"/>
<path d="M62.876 116.871C61.5111 117.03 59.4889 117.271 57.2074 117.58C56.6148 115.615 55.726 113.011 55.726 113.011C56.3143 112.798 56.89 112.55 57.45 112.271C58.763 111.613 60.1593 110.217 60.1593 109.15C60.1593 108.084 59.3797 105.076 59.3797 105.076C59.3797 105.076 60.326 104.306 60.6389 103.965C59.0926 103.091 58.2222 102.113 57.6963 101.302C57.3365 100.751 56.9464 100.22 56.5278 99.7114C55.2838 101.412 54.4474 103.377 54.0834 105.452C53.7408 107.317 51.9482 107.178 51.4556 106.193C50.963 105.208 49.65 104.552 48.5815 104.798C47.513 105.045 46.5297 106.604 46.9389 108.328C47.3482 110.052 49.9019 111.941 49.9019 111.941C49.8334 112.623 49.2574 115.895 48.6426 118.958C46.8081 119.297 44.9956 119.746 43.2148 120.302C44.4111 122.963 48.5352 125.878 52.4463 125.571C56.6315 125.245 61.6445 121.058 62.876 116.871Z" fill="#F2D9C4" stroke="#1F1F1F" stroke-linecap="round" stroke-linejoin="round"/>
<path d="M6.71289 178.082C6.95919 178.328 191.376 178.082 191.376 178.082" stroke="#1F1F1F" stroke-linecap="round" stroke-linejoin="round"/>
<path d="M30.28 142.571C29.704 144.541 22.2318 165.559 21.0837 168.763C19.9355 171.967 16.4855 174.921 14.7614 175.495C13.0374 176.069 10.317 177.424 9.91699 178.087H26.9133C26.9133 178.087 29.2114 172.791 30.9355 168.193C32.6596 163.595 38.5725 145.121 38.9818 142.33C38.9818 142.324 34.3837 142.076 30.28 142.571Z" fill="#F2D9C4" stroke="#1F1F1F" stroke-linecap="round" stroke-linejoin="round"/>
<path d="M25.6816 143.965C26.0909 142.817 29.8687 142.483 33.6446 142.324C35.8344 142.221 38.0284 142.249 40.215 142.406L39.1465 149.467" stroke="#1F1F1F" stroke-linecap="round" stroke-linejoin="round"/>
<path d="M78.9478 134.975C80.1182 136.884 94.3812 167.156 95.8219 169.523C96.6849 170.939 98.4404 172.349 100.872 172.856C105.676 173.841 113.189 175.263 115.527 175.688C116.983 175.956 116.924 177.473 115.753 178.095H92.5367C90.9978 178.095 89.6645 176.799 87.9386 173.354C85.4867 168.436 69.2793 141.01 69.2793 141.01C69.2793 141.01 75.1923 136.891 78.9478 134.975Z" fill="#F2D9C4" stroke="#1F1F1F" stroke-linecap="round" stroke-linejoin="round"/>
<path d="M106.291 173.956C109.597 174.53 112.347 175.086 113.513 175.312C114.984 175.595 114.724 177.836 113.678 178.089" stroke="#1F1F1F" stroke-linecap="round" stroke-linejoin="round"/>
<path d="M102.903 174.448C106.422 175.126 108.139 175.495 109.616 175.745C111.094 175.995 111.468 177.469 110.727 178.085" stroke="#1F1F1F" stroke-linecap="round" stroke-linejoin="round"/>
<path d="M161.161 175.741C158.961 174.854 158.854 168.517 163.298 160.469C167.743 152.421 172.002 150.699 173.972 151.602C175.943 152.506 175.202 157.262 171.178 165.965C167.644 173.617 163.624 176.728 161.161 175.741Z" fill="#1F1F1F" stroke="#1F1F1F" stroke-linecap="round" stroke-linejoin="round"/>
<path d="M167.319 154.639C171.013 155.789 173.969 156.528 177.504 155.132C181.039 153.736 188.096 147.743 189.574 146.019C192.537 142.571 193.433 143.637 193.022 145.278C192.611 146.919 177.257 178.039 177.257 178.039L159.769 170.486C159.769 170.486 160.119 166.923 162.396 162.193C163.712 159.478 165.366 156.94 167.319 154.639Z" fill="white" stroke="#1F1F1F" stroke-linecap="round" stroke-linejoin="round"/>
<path d="M121.777 22.0835V33.9039" stroke="#1F1F1F" stroke-linecap="round" stroke-linejoin="round"/>
<path d="M135.233 27.6577L126.876 36.0151" stroke="#1F1F1F" stroke-linecap="round" stroke-linejoin="round"/>
<path d="M140.808 41.1133H128.987" stroke="#1F1F1F" stroke-linecap="round" stroke-linejoin="round"/>
<path d="M121.966 62.4038C121.966 47.0224 122.522 41.0205 122.522 41.0205H67.372C67.372 41.0205 66.8164 47.0224 66.8164 62.4038C66.8164 80.7872 76.196 91.8483 85.0127 96.1687H140.161C131.344 91.8538 121.966 80.7798 121.966 62.4038Z" fill="#FFDF99" stroke="#FFDF99" stroke-linecap="round" stroke-linejoin="round"/>
<path d="M66.8164 62.4043C66.8164 80.7876 76.196 91.8487 85.0127 96.1691H104.259" stroke="#1F1F1F" stroke-linecap="round" stroke-linejoin="round"/>
<path d="M67.372 41.0205C67.372 41.0205 66.8164 47.0224 66.8164 62.4038" stroke="#1F1F1F" stroke-linecap="round" stroke-linejoin="round"/>
<path d="M95.3018 47.3613V56.9669" stroke="#1F1F1F" stroke-linecap="round" stroke-linejoin="round"/>
<path d="M103.22 43.3966L99.8872 37.6947C99.7296 37.372 99.6541 37.0154 99.6674 36.6565C99.6806 36.2976 99.7822 35.9476 99.9631 35.6373L102.083 31.9892C102.276 31.6566 102.378 31.279 102.379 30.8945C102.379 30.51 102.279 30.1321 102.087 29.7988C101.895 29.4656 101.619 29.1888 101.286 28.9963C100.953 28.8038 100.575 28.7023 100.191 28.7021H90.4131C90.0285 28.7021 89.6507 28.8034 89.3178 28.9959C88.9849 29.1884 88.7086 29.4653 88.5168 29.7987C88.3251 30.1321 88.2246 30.5101 88.2256 30.8947C88.2266 31.2793 88.3289 31.6568 88.5223 31.9892L90.6427 35.6373C90.8231 35.9477 90.9244 36.2978 90.9377 36.6566C90.9509 37.0153 90.8757 37.3719 90.7186 37.6947L87.3853 43.3966C87.2391 43.6952 87.1631 44.0233 87.1631 44.3559V49.7633H103.441V44.3559C103.441 44.0236 103.365 43.6957 103.22 43.3966Z" fill="#C2E7FF" stroke="#1F1F1F" stroke-linecap="round" stroke-linejoin="round"/>
<path d="M43.1703 120.319C37.9962 122.043 35.287 123.767 33.0703 128.2" stroke="#1F1F1F" stroke-linecap="round" stroke-linejoin="round"/>
<path d="M130.411 109.767C128.689 109.68 121.502 109.891 120.226 110.096C118.95 110.302 118.418 110.63 117.763 111.82C117.107 113.011 114.059 117.978 113.533 119.043C113.007 120.107 112.876 121.874 114.97 120.894C117.065 119.915 121.046 115.189 121.046 115.189C121.046 115.189 129.585 115.435 130.367 115.435C131.148 115.435 132.833 109.891 130.411 109.767Z" fill="#C99069" stroke="#1F1F1F" stroke-linecap="round" stroke-linejoin="round"/>
<path d="M82.5819 134.111L71.9893 120.565" stroke="#1F1F1F" stroke-linecap="round" stroke-linejoin="round"/>
<path d="M116.915 126.693C117.285 125.582 119.665 125.813 121.471 124.352C124.704 121.735 127.784 115.391 129.261 110.833C130.739 106.276 132.341 101.204 132.341 101.204C132.341 101.204 131.695 101.05 128.615 99.9427C125.535 98.8353 124.119 97.4168 123.134 95.2002C122.734 94.3002 123.35 93.5872 124.582 93.5335C126.089 93.4724 131.263 93.5039 131.263 93.5039C131.263 93.5039 133.045 91.6668 135.152 91.7168C136.687 91.7539 138.3 91.902 139.863 92.0242C140.743 92.0807 141.597 92.3447 142.356 92.7946C144.146 94.0722 145.863 95.4497 147.498 96.9205C148.484 97.8761 147.776 99.815 146.145 99.7224L142.326 99.5076L143.763 106.521L166.948 116.189C166.948 116.189 170.152 114.958 172.984 109.722C174.954 106.083 175.021 104.18 175.971 103.965C177.178 103.693 178.28 105.289 176.68 110.708C175.08 116.126 169.659 122.161 165.595 124.133C165.595 124.133 163.743 140.637 163.372 143.1C163.002 145.563 162.002 146.367 162.002 146.367L154.704 143.196C154.704 143.196 154.997 142.702 156.243 142.119C157.228 141.656 158.552 140.485 157.567 137.53C156.582 134.574 154.334 129.648 153.965 127.308C153.76 126.116 153.626 124.913 153.565 123.706C153.565 123.706 147.961 124.845 141.802 123.306C135.876 121.824 133.211 117.363 133.211 117.363L125.698 130.541L116.915 126.693Z" fill="#C99069" stroke="#1F1F1F" stroke-linecap="round" stroke-linejoin="round"/>
<path d="M128.352 106.769C129.414 106.769 130.276 105.907 130.276 104.844C130.276 103.782 129.414 102.92 128.352 102.92C127.289 102.92 126.428 103.782 126.428 104.844C126.428 105.907 127.289 106.769 128.352 106.769Z" fill="white" stroke="#1F1F1F" stroke-linecap="round" stroke-linejoin="round"/>
<path d="M143.148 103.541C142.248 103.911 139.815 104.861 137.082 105.047C134.489 105.221 132.48 104.928 131.296 104.491C131.03 105.328 130.728 106.272 130.411 107.269C131.356 107.728 134.202 108.454 137.913 108.067C141.498 107.697 143.23 106.837 143.763 106.524L143.148 103.541Z" fill="white" stroke="#1F1F1F" stroke-linecap="round" stroke-linejoin="round"/>
<path d="M153.555 123.706C153.492 122.689 153.77 120.072 153.77 120.072" stroke="#1F1F1F" stroke-linecap="round" stroke-linejoin="round"/>
<path d="M135.512 94.9818C135.541 94.8406 135.491 94.7108 135.4 94.6919C135.309 94.673 135.211 94.7721 135.182 94.9133C135.153 95.0545 135.203 95.1843 135.294 95.2032C135.385 95.2221 135.483 95.123 135.512 94.9818Z" fill="#1F1F1F" stroke="#1F1F1F" stroke-linecap="round" stroke-linejoin="round"/>
<path d="M123.133 95.1928C123.274 95.5076 123.422 95.8039 123.583 96.0873C124.048 95.8334 124.463 95.4992 124.811 95.1002C124.984 94.8778 125.108 94.6218 125.176 94.3484C125.244 94.0751 125.254 93.7906 125.206 93.5132L124.581 93.5298C123.35 93.5798 122.743 94.2984 123.133 95.1928Z" fill="#1F1F1F" stroke="#1F1F1F" stroke-linecap="round" stroke-linejoin="round"/>
<path d="M56.7363 104.546C56.8245 104.517 56.8591 104.382 56.8135 104.245C56.7678 104.108 56.6593 104.021 56.571 104.051C56.4827 104.08 56.4481 104.215 56.4938 104.352C56.5394 104.488 56.648 104.576 56.7363 104.546Z" fill="#1F1F1F" stroke="#1F1F1F" stroke-linecap="round" stroke-linejoin="round"/>
<path d="M111.402 148.152L107.461 145.936" stroke="#1F1F1F" stroke-linecap="round" stroke-linejoin="round"/>
<path d="M142.317 99.504L140.837 99.3799" stroke="#1F1F1F" stroke-linecap="round" stroke-linejoin="round"/>
<path d="M166.948 116.193C166.574 116.37 166.19 116.528 165.8 116.665" stroke="#1F1F1F" stroke-linecap="round" stroke-linejoin="round"/>
<path d="M163.348 70.2986C166.409 70.2986 168.891 67.8171 168.891 64.756C168.891 61.6949 166.409 59.2134 163.348 59.2134C160.287 59.2134 157.806 61.6949 157.806 64.756C157.806 67.8171 160.287 70.2986 163.348 70.2986Z" fill="#F9DEDC"/>
<path d="M163.35 70.3004C161.88 70.3004 160.47 69.7165 159.431 68.677C158.392 67.6376 157.808 66.2278 157.808 64.7578" stroke="#1F1F1F" stroke-linecap="round" stroke-linejoin="round"/>
<path d="M31.7198 46.2313L19.5327 58.4185C18.0169 59.9343 18.0169 62.3919 19.5327 63.9077L31.7198 76.0948C33.2356 77.6106 35.6933 77.6106 37.2091 76.0948L49.3962 63.9077C50.912 62.3919 50.912 59.9343 49.3962 58.4185L37.2091 46.2313C35.6933 44.7155 33.2356 44.7155 31.7198 46.2313Z" fill="#C4EED0" stroke="#C4EED0" stroke-miterlimit="10"/>
<path d="M28.2982 72.665L19.5389 63.9057C18.8129 63.1769 18.4053 62.19 18.4053 61.1613C18.4053 60.1325 18.8129 59.1457 19.5389 58.4168L24.5704 53.3872" stroke="#1F1F1F" stroke-linecap="round" stroke-linejoin="round"/>
</g>
<defs>
<clipPath id="clip0_714_2002">
<rect width="187.231" height="156.941" fill="white" transform="translate(6.2959 21.667)"/>
</clipPath>
</defs>
</svg>