<svg xmlns="http://www.w3.org/2000/svg" width="200" height="201" viewBox="0 0 200 201" fill="none">
<g clip-path="url(#clip0_714_1972)">
<path d="M144.206 135.552C143.65 135.737 95.0019 161.048 95.0019 161.048H63.4649L36.5205 94.8947C34.8319 90.7464 34.829 86.1029 36.5123 81.9525C38.1957 77.8021 41.4323 74.4725 45.5334 72.6725L116.383 41.5799C118.517 40.6438 120.818 40.1512 123.148 40.1319C125.478 40.1127 127.787 40.5671 129.936 41.4677C132.084 42.3683 134.027 43.6963 135.647 45.3709C137.267 47.0456 138.529 49.032 139.358 51.2095L177.354 153.7C179.361 159.113 172.62 163.476 168.504 159.441L144.206 135.552Z" fill="#C2E7FF" stroke="#C2E7FF" stroke-width="0.833333" stroke-linecap="round" stroke-linejoin="round"/>
<path d="M83.5781 93.9285C85.2207 94.2563 86.3115 95.6248 86.7818 99.5118C87.3559 104.273 86.617 108.871 86.617 108.871L112.645 135.064C117.736 136.871 121.924 139.088 124.552 141.223C127.18 143.358 127.424 145.738 127.424 145.738L126.684 119.299C129.785 118.823 132.91 118.522 136.045 118.397C140.315 118.232 144.667 119.217 145.406 120.203C145.406 120.203 139.739 101.975 137.111 97.7952C134.484 93.6155 132.678 92.6211 128.326 92.6211C123.974 92.6211 108.863 95.7026 104.761 95.9804C101.404 96.2081 96.8929 96.3878 91.3781 95.4878C87.7392 94.8933 83.5781 93.9285 83.5781 93.9285Z" fill="#FFDDDB" stroke="#FFDDDB" stroke-width="0.833333" stroke-linecap="round" stroke-linejoin="round"/>
<path d="M127.374 145.458C127.222 144.769 126.633 142.919 124.551 141.223C124.551 141.223 122.926 145.436 121.135 149.473C122.942 150.093 124.977 150.184 126.357 149.187C127.333 148.482 127.572 147.034 127.374 145.458Z" fill="#1F1F1F" stroke="#1F1F1F" stroke-linecap="round" stroke-linejoin="round"/>
<path d="M145.408 120.202C144.667 119.217 140.317 118.232 136.047 118.397C132.912 118.522 129.787 118.823 126.686 119.298L126.823 124.167C129.721 124.537 136.823 124.517 140.254 123.982C144.206 123.363 146.261 121.958 145.408 120.202Z" fill="#1F1F1F" stroke="#1F1F1F" stroke-linecap="round" stroke-linejoin="round"/>
<path d="M75.4499 100.989C79.0832 100.461 82.8443 99.7668 86.7295 99.115C86.2554 95.6853 85.248 94.3594 83.7795 93.9742C83.7128 93.9576 83.6461 93.939 83.5776 93.9279C81.7721 93.6187 80.335 94.2353 78.3647 96.0205C76.9239 97.3261 76.035 99.3742 75.4258 100.993L75.4499 100.989Z" fill="#1F1F1F" stroke="#1F1F1F" stroke-linecap="round" stroke-linejoin="round"/>
<path d="M86.7817 99.5115C86.7651 99.3763 86.7484 99.243 86.7299 99.1152C82.841 99.7671 79.0836 100.462 75.4503 100.989C70.3595 101.73 67.4873 102.878 65.3503 105.176C63.2132 107.474 47.3688 123.404 46.7984 124.882C46.228 126.36 43.9243 131.363 43.0947 134.162C42.2651 136.96 41.7817 137.363 43.0947 137.937C43.0947 137.937 70.6873 110.841 71.0132 110.841C71.2428 110.841 80.2725 109.71 86.6188 108.834C86.6891 108.404 87.3262 104.034 86.7817 99.5115Z" fill="#F7D8C1" stroke="#191C1E" stroke-linecap="round" stroke-linejoin="round"/>
<path d="M37.393 144.441C37.1352 144.668 36.9255 144.945 36.7764 145.254C36.8536 145.121 36.9455 144.997 37.0504 144.884L37.393 144.441Z" fill="#1F1F1F" stroke="#1F1F1F" stroke-linecap="round" stroke-linejoin="round"/>
<path d="M179.483 161.05H20.6016" stroke="#1F1F1F" stroke-linecap="round" stroke-linejoin="round"/>
<path d="M60.9986 157.726C58.1245 155.099 48.1893 148.037 44.5782 146.06C40.9671 144.082 37.8449 143.432 36.7764 145.237C36.7764 145.237 67.0745 105.169 69.9486 102.132C72.8227 99.0948 77.3393 98.8467 80.4597 104.265C83.5801 109.684 87.6819 119.621 87.6819 119.621L60.9986 157.726Z" fill="white" stroke="#1F1F1F" stroke-linecap="round" stroke-linejoin="round"/>
<path d="M44.7182 146.146C43.496 148.152 41.7256 150.754 39.9793 152.224C36.859 154.852 32.6701 156.248 29.0534 157.315C25.9182 158.241 22.7293 159.122 22.1553 161.019H55.6553L58.446 155.659C54.6201 152.611 47.8053 147.861 44.7182 146.146Z" fill="white" stroke="#1F1F1F" stroke-linecap="round" stroke-linejoin="round"/>
<path d="M44.5756 146.067C41.2312 144.243 38.3108 143.547 37.0479 144.884C36.8627 145.121 36.7738 145.254 36.7738 145.254C36.1275 146.593 37.4331 149.454 39.4979 152.619C39.659 152.493 39.8201 152.365 39.9775 152.234C41.7238 150.763 43.496 148.16 44.7164 146.156L44.5756 146.067Z" fill="#1F1F1F" stroke="#1F1F1F" stroke-linecap="round" stroke-linejoin="round"/>
<path d="M69.1255 145.508C68.2292 147.71 66.7681 150.693 64.9403 152.224C61.8199 154.852 57.631 156.249 54.0144 157.315C50.8792 158.241 47.6903 159.123 47.1162 161.019H79.3903L82.5755 153.454C77.3625 150.124 72.5921 147.284 69.1255 145.508Z" fill="white" stroke="#1F1F1F" stroke-linecap="round" stroke-linejoin="round"/>
<path d="M60.4238 144.506C60.4238 144.506 82.4294 108.132 84.7275 105.095C87.0257 102.058 91.872 99.9207 96.059 105.504C100.246 111.087 112.644 135.063 112.644 135.063C112.644 135.063 120.607 137.691 124.552 141.223C124.552 141.223 120.939 150.582 118.557 154.771C116.824 157.819 114.124 161.093 109.772 161.093C105.42 161.093 101.068 159.369 97.1257 152.554C93.1831 145.739 89.1627 137.691 89.1627 137.691L82.5924 153.456C75.1312 148.7 68.5516 144.917 65.4331 143.85C62.3146 142.784 60.4238 144.506 60.4238 144.506Z" fill="white" stroke="#1F1F1F" stroke-linecap="round" stroke-linejoin="round"/>
<path d="M97.1257 152.554C93.1849 145.738 89.1627 137.691 89.1627 137.691L83.7275 150.738C85.1794 153.547 86.709 156.293 88.3405 157.814C90.8868 160.195 92.9386 161.099 96.3868 161.099H109.772C105.42 161.093 101.068 159.369 97.1257 152.554Z" fill="white" stroke="#1F1F1F" stroke-linecap="round" stroke-linejoin="round"/>
<path d="M60.4238 144.506L60.6868 144.071C60.5782 144.202 60.4896 144.349 60.4238 144.506Z" fill="#1F1F1F" stroke="#1F1F1F" stroke-linecap="round" stroke-linejoin="round"/>
<path d="M70.6702 146.323L70.5146 146.239" stroke="#1F1F1F" stroke-linecap="round" stroke-linejoin="round"/>
<path d="M64.9459 152.219C66.7737 150.68 68.2348 147.704 69.1311 145.502C69.344 145.612 66.5126 144.206 65.4385 143.836C62.3181 142.767 60.4292 144.491 60.4292 144.491C59.5829 146.528 61.644 149.613 64.22 152.782C64.4625 152.612 64.7051 152.423 64.9459 152.219Z" fill="#1F1F1F" stroke="#1F1F1F" stroke-linecap="round" stroke-linejoin="round"/>
<path d="M69.7979 145.856L70.4553 146.206" stroke="#1F1F1F" stroke-linecap="round" stroke-linejoin="round"/>
<path d="M166.18 159.697C164.948 159.326 162.178 158.712 159.469 158.095C157.335 157.612 154.604 157.049 152.202 156.124C149.8 155.2 148.869 153.6 147.706 149.66C146.734 146.384 142.274 125.586 140.795 118.65C139.223 118.424 137.634 118.339 136.047 118.397C133.806 118.482 131.723 118.667 130.095 118.849C131.904 125.452 139.354 152.989 140.685 156.556C141.919 159.843 143.58 161.052 145.921 161.052H166.55C166.55 161.052 167.28 160.026 166.18 159.697Z" fill="#F7D8C1" stroke="#191C1E" stroke-linecap="round" stroke-linejoin="round"/>
<path d="M153.68 157.173C155.28 157.543 158.852 158.527 160.269 158.897C161.685 159.267 161.87 159.758 161.87 160.314C161.883 160.458 161.847 160.602 161.769 160.724C161.691 160.847 161.575 160.94 161.439 160.99" stroke="#1F1F1F" stroke-linecap="round" stroke-linejoin="round"/>
<path d="M89.1631 137.691L94.8075 122.871" stroke="#1F1F1F" stroke-linecap="round" stroke-linejoin="round"/>
<path d="M120.263 93.5706C120.304 92.2003 120.409 89.9688 120.672 89.1855C121.042 88.0744 123.45 83.3966 123.265 81.1188C123.08 78.841 120.555 74.0984 115.813 75.2688C111.07 76.4392 107.624 80.0095 107.624 80.0095C106.822 81.9188 106.142 86.6614 106.142 88.8169C106.142 90.9725 107.068 91.6484 108.667 92.204C110.265 92.7595 111.191 92.141 111.191 92.141C111.191 92.141 110.75 93.7169 110.346 95.2114C107.939 95.6021 105.918 95.9021 104.767 95.9799L104.087 96.0244C104.272 97.9392 105.409 100.982 107.928 102.363C111.076 104.089 116.241 102.302 119.196 99.8392C121.555 97.8744 123.911 94.6966 124.926 92.8966C123.544 93.0669 121.948 93.304 120.263 93.5706Z" fill="#F7D8C1" stroke="#191C1E" stroke-linecap="round" stroke-linejoin="round"/>
<path d="M112.626 78.9041C112.049 78.9706 111.506 79.2116 111.069 79.5948C109.815 80.693 107.469 82.5671 105.893 82.7189C103.984 82.9041 103.428 81.4226 104.291 79.8874C105.154 78.3522 107.371 77.48 107.371 77.48C107.371 77.48 105.091 75.5708 106.939 72.8615C108.787 70.1522 111.25 69.5967 113.96 69.7819C116.669 69.9671 120.18 71.7522 120.98 74.6467C121.926 74.5012 122.893 74.5696 123.81 74.8468C124.726 75.124 125.569 75.603 126.276 76.2485C128.739 78.4708 128.432 83.33 126.213 85.2393C123.995 87.1485 120.61 89.98 120.426 91.0282C120.307 91.8684 120.253 92.7166 120.263 93.5652C120.263 93.5652 117.286 91.1356 116.428 89.043C115.571 86.9504 117.215 85.6263 118.706 84.8134C120.287 83.9522 121.167 82.4652 121.128 81.5708C121.067 80.1541 119.856 80.0097 118.536 81.0578C117.65 81.7634 116.869 83.13 116.441 82.8226C116.013 82.5152 117.037 80.2467 117.16 79.4559C117.241 78.9226 116.626 78.9004 115.702 78.8393C114.676 78.8069 113.65 78.8286 112.626 78.9041Z" fill="#3C4043" stroke="#191C1E" stroke-linecap="round" stroke-linejoin="round"/>
<path d="M110.065 82.5303C109.818 83.5155 109.416 85.1636 108.848 86.1488C108.409 86.9062 108.016 87.4877 108.539 87.6414C108.807 87.7214 109.088 87.7491 109.366 87.7229" stroke="#1F1F1F" stroke-linecap="round" stroke-linejoin="round"/>
<path d="M112.646 83.4894C112.729 83.4894 112.796 83.336 112.796 83.1468C112.796 82.9576 112.729 82.8042 112.646 82.8042C112.563 82.8042 112.496 82.9576 112.496 83.1468C112.496 83.336 112.563 83.4894 112.646 83.4894Z" fill="#1F1F1F" stroke="#1F1F1F" stroke-linecap="round" stroke-linejoin="round"/>
<path d="M108.406 83.4469C108.489 83.4469 108.556 83.2935 108.556 83.1043C108.556 82.9151 108.489 82.7617 108.406 82.7617C108.323 82.7617 108.256 82.9151 108.256 83.1043C108.256 83.2935 108.323 83.4469 108.406 83.4469Z" fill="#1F1F1F" stroke="#1F1F1F" stroke-linecap="round" stroke-linejoin="round"/>
<path d="M127.376 145.458L126.424 109.963" stroke="#191C1E" stroke-linecap="round" stroke-linejoin="round"/>
</g>
<defs>
<clipPath id="clip0_714_1972">
<rect width="159.715" height="121.806" fill="white" transform="translate(20.1855 39.7041)"/>
</clipPath>
</defs>
</svg>