<svg xmlns="http://www.w3.org/2000/svg" width="200" height="201" viewBox="0 0 200 201" fill="none">
<g clip-path="url(#clip0_714_2596)">
<path d="M186.386 155.382L165.647 135.501C163.571 133.511 160.274 133.58 158.284 135.657L138.403 156.396C136.412 158.472 136.482 161.768 138.558 163.759L159.298 183.64C161.374 185.63 164.67 185.561 166.66 183.485L186.542 162.745C188.532 160.669 188.462 157.373 186.386 155.382Z" fill="#F9DEDC" stroke="#F9DEDC" stroke-linecap="round" stroke-linejoin="round"/>
<path d="M21.1888 70.7538L61.2092 60.0298C66.6925 58.5613 68.5277 51.7076 64.5148 47.6946L35.2166 18.3964C31.2036 14.3835 24.3499 16.2187 22.8814 21.702L12.1573 61.7224C10.6888 67.2057 15.7055 72.2224 21.1888 70.7538Z" fill="#1EA446" stroke="#1EA446" stroke-linecap="round" stroke-linejoin="round"/>
<path d="M98.9778 68.3931L93.8018 57.7449C93.4446 57.0106 92.8881 56.3916 92.1959 55.9584C91.5037 55.5251 90.7036 55.2953 89.887 55.2949H47.637C46.4828 55.2949 45.3759 55.7534 44.5598 56.5696C43.7437 57.3857 43.2852 58.4926 43.2852 59.6468V155.188C43.2852 155.754 43.3967 156.314 43.6134 156.837C43.83 157.36 44.1476 157.835 44.548 158.235C44.9483 158.635 45.4236 158.953 45.9466 159.169C46.4697 159.386 47.0302 159.497 47.5963 159.497H172.863C174.005 159.496 175.101 159.042 175.909 158.234C176.717 157.426 177.17 156.33 177.17 155.188V72.7023C177.17 71.5594 176.716 70.4634 175.908 69.6552C175.1 68.8471 174.004 68.3931 172.861 68.3931H98.9778Z" fill="#C2E7FF" stroke="#191C1E" stroke-linecap="round" stroke-linejoin="round"/>
<path d="M93.0569 63.4819L87.8717 52.8338C87.5144 52.0995 86.9579 51.4804 86.2657 51.0472C85.5735 50.614 84.7734 50.3841 83.9569 50.3838H41.7161C40.5619 50.3838 39.455 50.8423 38.6389 51.6584C37.8228 52.4745 37.3643 53.5815 37.3643 54.7356V150.276C37.3643 151.419 37.8183 152.515 38.6264 153.323C39.4346 154.132 40.5306 154.586 41.6735 154.586H166.942C168.084 154.584 169.178 154.129 169.984 153.321C170.791 152.513 171.244 151.418 171.244 150.276V67.7912C171.244 66.6483 170.79 65.5522 169.982 64.7441C169.174 63.9359 168.078 63.4819 166.935 63.4819H93.0569Z" fill="#C2E7FF" stroke="#191C1E" stroke-linecap="round" stroke-linejoin="round"/>
<path d="M101.95 58.2466L96.774 47.5984C96.4172 46.8642 95.8611 46.245 95.1692 45.8118C94.4772 45.3786 93.6774 45.1487 92.861 45.1484H35.7962C34.6418 45.1489 33.5349 45.6078 32.7189 46.4243C31.9028 47.2407 31.4443 48.3478 31.4443 49.5021V145.041C31.4441 145.607 31.5554 146.168 31.7718 146.691C31.9883 147.214 32.3057 147.689 32.7058 148.089C33.106 148.49 33.5811 148.807 34.1041 149.024C34.627 149.241 35.1875 149.352 35.7536 149.352H161.022C161.588 149.352 162.149 149.241 162.672 149.024C163.195 148.807 163.67 148.49 164.07 148.089C164.47 147.689 164.787 147.214 165.004 146.691C165.22 146.168 165.332 145.607 165.331 145.041V62.5577C165.332 61.9916 165.22 61.4311 165.004 60.908C164.787 60.385 164.47 59.9097 164.07 59.5094C163.67 59.109 163.195 58.7915 162.672 58.5748C162.149 58.3581 161.588 58.2466 161.022 58.2466H101.95Z" fill="white" stroke="#191C1E" stroke-linecap="round" stroke-linejoin="round"/>
<path d="M145.272 135.141C142.691 131.067 139.759 127.391 137.107 124.819C140.794 123.249 144.176 123.245 145.996 125.154C147.983 127.258 147.561 131.141 145.272 135.141Z" fill="#191C1E" stroke="#191C1E" stroke-linecap="round" stroke-linejoin="round"/>
<path d="M131.996 74.5764C128.357 64.206 110.514 75.6116 104.62 64.5134C103.401 62.2153 102.522 59.8838 101.572 57.8097C102.478 58.4761 103.582 58.8177 104.705 58.7793C105.829 58.7409 106.907 58.3248 107.766 57.5982C108.624 56.8715 109.212 55.8768 109.435 54.7747C109.658 53.6725 109.504 52.5273 108.996 51.524C108.488 50.5207 107.657 49.7179 106.636 49.2453C105.616 48.7727 104.466 48.6578 103.372 48.9192C102.279 49.1807 101.305 49.8032 100.609 50.6862C99.9123 51.5692 99.534 52.6612 99.5347 53.7857C99.5347 53.9283 99.5347 54.0709 99.5533 54.2097C97.8033 51.8449 95.3533 50.406 90.957 50.7727C81.7292 51.5412 79.6699 60.7412 79.6699 60.7412C83.7718 60.1357 83.7977 58.9412 85.5958 58.3227C88.3736 57.369 88.5866 62.869 89.3236 64.6542C90.4681 67.432 92.3088 66.3209 93.6366 62.8209C94.8718 59.5709 100.016 59.8172 98.094 67.0801C96.7977 71.9968 93.031 84.7857 99.2533 83.4616C102.096 82.8579 106.207 79.2023 109.22 81.519C114.24 85.3875 116.487 93.6394 116.487 93.6394C116.487 93.6394 134.738 82.3949 131.996 74.5764Z" fill="#F7B804" stroke="#1F1F1F" stroke-linecap="round" stroke-linejoin="round"/>
<path d="M151.751 149.351H84.9902V132.764L136.17 123.943C141.944 129.104 149.509 140.23 151.751 149.351Z" fill="#C2E7FF" stroke="#C2E7FF" stroke-width="0.833333" stroke-linecap="round" stroke-linejoin="round"/>
<path d="M45.9386 137.146C41.4645 148.334 48.3978 149.353 48.3978 149.353H138.837C138.837 149.353 137.422 147.327 132.84 146.946C85.9886 142.966 65.8775 129.808 65.8775 129.808C65.8775 129.808 83.4886 86.6603 77.1089 82.077C74.7589 80.5251 70.9552 80.6177 67.1423 89.0455C61.6015 101.273 51.3886 123.523 45.9386 137.146Z" fill="#F7D8C1" stroke="#191C1E" stroke-linecap="round" stroke-linejoin="round"/>
<path d="M145.061 124.356C134.813 122.4 129.95 134.011 101.357 139.569C93.2741 141.139 70.9871 125.182 72.3093 111.395C73.876 95.0373 77.1112 82.0688 77.1112 82.0688L79.226 83.6151C78.5445 94.2003 78.6982 109.032 84.9945 109.726C91.589 110.934 95.1519 104.943 101.954 82.4095C104.137 81.2392 106.195 79.5206 108.237 77.7373L126.182 104.706C126.182 104.706 133.17 118.56 145.061 124.356Z" fill="white" stroke="#191C1E" stroke-linecap="round" stroke-linejoin="round"/>
<path d="M101.95 82.4113C95.1479 104.945 91.5793 110.93 84.9905 109.728C84.9256 109.728 84.8627 109.713 84.8053 109.702C84.7479 109.691 84.6719 109.68 84.6071 109.663L84.4793 109.633C83.9828 109.503 83.5145 109.282 83.0979 108.982C78.6756 105.75 78.6219 93.0094 79.2275 83.6113C82.059 85.6483 83.4867 86.6483 83.4867 86.6483L84.1145 83.1594L85.0905 77.7354C73.546 80.1002 77.4127 66.7279 79.6682 60.7354C83.7719 60.1317 83.7979 58.9354 85.5942 58.3168C88.3719 57.365 88.5849 62.865 89.3201 64.6483C90.4664 67.4261 92.3071 66.315 93.6349 62.8168C94.8701 59.565 100.015 59.8113 98.0923 67.0761C97.1016 70.8242 94.6793 79.1465 96.3405 82.3057C96.8571 83.2891 97.7719 83.7724 99.2497 83.4576C100.196 83.2431 101.106 82.8905 101.95 82.4113Z" fill="#F7D8C1" stroke="#191C1E" stroke-linecap="round" stroke-linejoin="round"/>
<path d="M126.182 104.706C124.802 105.976 121.057 107.497 118.033 106.765C111.767 123.889 108.495 142.978 100.759 149.345H87.6612C79.4167 144.9 68.5242 134.111 53.6242 119.33C52.8464 120.871 53.1742 120.241 49.689 128.117C45.7779 125.976 52.139 104.795 58.6667 107.747C66.5964 112.619 91.0001 134.687 91.0001 134.687C91.0001 134.687 103.352 96.0392 108.233 77.7374C108.528 77.443 120.456 67.7078 126.182 104.706Z" fill="#F7D8C1" stroke="#191C1E" stroke-linecap="round" stroke-linejoin="round"/>
<path d="M120.115 99.7168L118.037 106.77" stroke="#1F1F1F" stroke-linecap="round" stroke-linejoin="round"/>
<path d="M64.1161 129.86L56.3291 128.532" stroke="#1F1F1F" stroke-linecap="round" stroke-linejoin="round"/>
<path d="M86.93 65.189C87.154 65.189 87.3355 65.0075 87.3355 64.7835C87.3355 64.5595 87.154 64.3779 86.93 64.3779C86.706 64.3779 86.5244 64.5595 86.5244 64.7835C86.5244 65.0075 86.706 65.189 86.93 65.189Z" fill="#1F1F1F" stroke="#1F1F1F" stroke-linecap="round" stroke-linejoin="round"/>
<path d="M80.6927 65.189C80.9166 65.189 81.0982 65.0075 81.0982 64.7835C81.0982 64.5595 80.9166 64.3779 80.6927 64.3779C80.4687 64.3779 80.2871 64.5595 80.2871 64.7835C80.2871 65.0075 80.4687 65.189 80.6927 65.189Z" fill="#1F1F1F" stroke="#1F1F1F" stroke-linecap="round" stroke-linejoin="round"/>
<path d="M85.091 77.7393C87.6058 76.9579 88.4706 76.5097 89.7484 75.5264L83.4873 86.6523L85.091 77.7393Z" fill="#1F1F1F" stroke="#1F1F1F" stroke-linecap="round" stroke-linejoin="round"/>
<path d="M130.774 149.353C130.774 149.353 131.144 147.871 128.714 147.434C124.35 146.649 121.957 145.801 121.957 145.801" stroke="#1F1F1F" stroke-linecap="round" stroke-linejoin="round"/>
<path d="M135.619 149.401C135.619 149.401 135.989 147.919 133.562 147.484C129.197 146.699 127.491 146.475 127.491 146.475" stroke="#1F1F1F" stroke-linecap="round" stroke-linejoin="round"/>
<path d="M83.2187 64.3779C83.2187 67.2187 81.2539 70.1668 81.2539 70.1668H83.2187" stroke="#1F1F1F" stroke-linecap="round" stroke-linejoin="round"/>
<path d="M22.8813 21.7021L12.1572 61.7225" stroke="#1F1F1F" stroke-linecap="round" stroke-linejoin="round"/>
<path d="M154.093 16.5244H136.03C133.784 16.5244 131.963 18.3451 131.963 20.5911V38.654C131.963 40.9 133.784 42.7207 136.03 42.7207H154.093C156.338 42.7207 158.159 40.9 158.159 38.654V20.5911C158.159 18.3451 156.338 16.5244 154.093 16.5244Z" fill="#F7B804" stroke="#F7B804" stroke-linecap="round" stroke-linejoin="round"/>
<path d="M31.4443 58.2471V145.042C31.4441 145.608 31.5554 146.168 31.7718 146.691C31.9883 147.214 32.3057 147.689 32.7058 148.09C33.106 148.49 33.5811 148.808 34.1041 149.024C34.627 149.241 35.1875 149.353 35.7536 149.353H161.022C161.588 149.353 162.149 149.241 162.672 149.024C163.195 148.808 163.67 148.49 164.07 148.09C164.47 147.689 164.787 147.214 165.004 146.691C165.22 146.168 165.332 145.608 165.331 145.042V62.5582" stroke="#191C1E" stroke-linecap="round" stroke-linejoin="round"/>
</g>
<defs>
<clipPath id="clip0_714_2596">
<rect width="176.917" height="169.689" fill="white" transform="translate(11.4814 15.8154)"/>
</clipPath>
</defs>
</svg>