<svg xmlns="http://www.w3.org/2000/svg" width="200" height="201" viewBox="0 0 200 201" fill="none">
<g clip-path="url(#clip0_714_1753)">
<path d="M161.787 84.1601C161.787 113.234 141.439 137.553 114.207 143.653C100.872 146.634 86.9218 145.07 74.5778 139.208C54.0445 129.393 39.8574 108.44 39.8574 84.1657C39.8556 50.4898 67.15 23.1953 100.822 23.1953C134.494 23.1953 161.787 50.4898 161.787 84.1601Z" fill="white" stroke="#1F1F1F" stroke-linecap="round" stroke-linejoin="round"/>
<path d="M87.6885 165.406C87.6892 167.068 88.0178 168.714 88.6553 170.249C89.2929 171.784 90.227 173.178 91.4041 174.352C92.5812 175.525 93.9781 176.455 95.515 177.088C97.052 177.721 98.6986 178.044 100.361 178.04H126.022C129.378 178.04 132.597 176.706 134.971 174.333C137.344 171.96 138.677 168.741 138.677 165.384C138.677 162.028 137.344 158.809 134.971 156.435C132.597 154.062 129.378 152.729 126.022 152.729H100.361C96.9993 152.73 93.7761 154.066 91.3997 156.444C89.0234 158.821 87.6885 162.045 87.6885 165.406Z" fill="#C4EED0" stroke="#C4EED0" stroke-linecap="round" stroke-linejoin="round"/>
<path d="M87.6885 165.406C87.6885 162.045 89.0234 158.821 91.3997 156.444C93.7761 154.066 96.9993 152.73 100.361 152.729H108.296" stroke="#1F1F1F" stroke-linecap="round" stroke-linejoin="round"/>
<path d="M98.152 32.435L95.9089 34.6781C94.2802 36.3067 94.2802 38.9472 95.9089 40.5759L98.152 42.819C99.7806 44.4476 102.421 44.4476 104.05 42.819L106.293 40.5759C107.921 38.9472 107.921 36.3067 106.293 34.6781L104.05 32.435C102.421 30.8063 99.7806 30.8063 98.152 32.435Z" fill="#1EA446" stroke="#1EA446" stroke-linecap="round" stroke-linejoin="round"/>
<path d="M70.3997 89.21C64.3034 89.21 58.8126 89.6951 57.1497 92.4525C56.8997 93.4081 57.3608 94.5174 59.1867 95.7377C62.0274 97.6396 73.7256 98.5655 79.0219 98.447C79.0219 98.447 81.2071 93.3266 81.4052 89.6137C77.6867 89.4081 73.3515 89.21 70.3997 89.21Z" fill="#1F1F1F" stroke="#1F1F1F" stroke-linecap="round" stroke-linejoin="round"/>
<path d="M176.567 148.45C175.826 148.265 173.487 149.313 171.148 151.784C169.013 154.032 166.776 157.204 165.974 160.282C165.117 163.582 164.928 166.81 166.098 169.889L166.068 169.871C167.063 170.715 168.411 170.347 170.039 169.519C172.248 168.397 176.074 164.471 178.168 159.297C180.263 154.123 179.522 149.437 176.567 148.45Z" fill="#1F1F1F" stroke="#1F1F1F" stroke-linecap="round" stroke-linejoin="round"/>
<path d="M14.6981 49.6151L9.03147 61.291C7.81296 63.8003 10.1981 66.5466 12.8537 65.691L16.0852 64.3058C16.749 64.0909 17.4653 64.102 18.1222 64.3373L21.5055 65.8966C22.0848 66.1039 22.7118 66.1381 23.3102 65.995C23.9085 65.8519 24.4523 65.5377 24.875 65.0908C25.2978 64.6438 25.5813 64.0835 25.691 63.4781C25.8007 62.8728 25.7317 62.2486 25.4926 61.6817L20.4704 49.7669C20.2334 49.2058 19.8398 48.7249 19.3366 48.3816C18.8335 48.0383 18.2421 47.8472 17.6332 47.8312C17.0243 47.8152 16.4237 47.9749 15.9032 48.2912C15.3827 48.6076 14.9643 49.0672 14.6981 49.6151Z" fill="#FFB729"/>
<path d="M69.5523 178.01C66.4597 150.262 42.9301 128.871 14.356 128.871C14.356 128.901 14.356 129.195 14.3301 129.716V178.01H69.5523Z" fill="#FFDF99" stroke="#FFDF99" stroke-linecap="round" stroke-linejoin="round"/>
<path d="M58.6944 150.952C50.9769 140.725 39.963 133.479 27.5166 130.439" stroke="#1F1F1F" stroke-linecap="round" stroke-linejoin="round"/>
<path d="M108.95 79.7873C108.95 79.7873 111.495 77.5021 112.584 71.4744C113.074 68.7595 113.184 67.2003 113.195 66.3984L110.176 66.6096C109.065 69.2021 108.206 75.1688 107.954 77.3855C107.743 79.2947 108.26 80.1984 108.96 79.7836L108.95 79.7873Z" fill="#1F1F1F" stroke="#1F1F1F" stroke-linecap="round" stroke-linejoin="round"/>
<path d="M168.439 81.758C167.513 78.7951 161.665 65.8506 160.556 62.5247C159.7 59.9543 157.109 58.5691 155.926 58.0914C158.969 64.4256 160.86 71.2514 161.509 78.2488C162.065 81.134 162.25 83.1599 162.25 83.1599C162.25 83.1599 145.628 69.8617 141.589 67.471C138.374 65.3284 135.965 62.2636 135.335 58.3636C136.589 57.605 137.537 56.4316 138.017 55.0469C139.289 51.2691 135.513 49.5877 132.474 50.6543C130.437 51.371 127.056 54.5951 127.056 58.1062C127.056 60.4562 129.08 60.6765 131.256 60.1247C130.9 61.4636 130.409 63.2562 130.011 64.5099C128.009 64.634 126.931 64.634 125.393 64.7562C120.207 65.171 107.898 66.0858 107.898 66.0858C107.898 66.0858 109.068 51.4951 109.156 48.1506C109.237 44.9895 108.15 44.6191 105.748 44.6191H96.0185C94.4981 44.6191 94.3074 45.7803 95.8537 46.1006C97.6611 46.471 100.113 46.7636 101.807 47.6395C103.346 48.4414 104.044 48.9543 103.778 50.8432C103.254 54.5469 100.63 63.0154 100.259 67.8191C99.8889 72.6228 101.791 75.7821 107.506 75.4117C113.713 75.0043 127.213 74.4303 127.213 74.4303L136.985 77.3451L157.356 90.0728C160.318 91.9247 163.852 92.734 166.674 90.8525C169.259 89.121 169.361 84.7136 168.439 81.758Z" fill="#F2D9C4" stroke="#1F1F1F" stroke-linecap="round" stroke-linejoin="round"/>
<path d="M99.2815 78.4951L88.3223 80.347L88.7223 84.3062C89.7445 84.0488 91.6297 83.4636 93.4315 82.8766C96.0797 82.0044 99.4982 79.4914 99.2815 78.4951Z" fill="#1F1F1F" stroke="#1F1F1F" stroke-linecap="round" stroke-linejoin="round"/>
<path d="M107.596 116.553C106.882 114.701 96.7575 89.5804 96.7575 89.5804C96.7575 89.5804 94.663 73.6915 93.7945 69.9971L84.6797 70.8582C84.6797 70.8582 86.0352 79.973 87.7593 87.8545C88.626 91.823 89.3593 93.2748 91.4538 97.7082C93.613 102.282 100.745 115.545 102.167 118.184C102.213 118.924 102.337 119.657 102.537 120.371C103.152 122.464 103.769 127.021 104.507 127.021C105.246 127.021 105.493 126.28 105.493 124.312C105.508 123.562 105.569 122.813 105.678 122.071C106.233 122.627 106.691 123.195 106.846 123.819C107.341 125.79 107.587 127.267 107.587 129.116C107.587 130.13 109.069 131.047 109.557 128.13C110.176 124.434 108.828 119.754 107.596 116.553Z" fill="#BC7B40" stroke="#1F1F1F" stroke-linecap="round" stroke-linejoin="round"/>
<path d="M172.933 39.3288C170.635 36.9899 166.97 36.7843 162.989 38.4677C158.574 40.3325 154.326 44.1436 150.918 46.0714C145.746 49.001 140.324 51.0714 138.511 51.3102C138.405 51.2158 138.294 51.1251 138.178 51.0288C136.365 49.588 133.539 49.8806 132.066 50.6584C131.152 51.1539 130.355 51.8397 129.728 52.6695C129.85 53.1621 130.302 53.6139 130.878 53.2454C131.453 52.8769 133.011 52.2176 133.422 53.2454C133.715 53.9862 133.463 54.4362 132.929 55.3788C132.71 55.7839 132.576 56.2292 132.533 56.6878C132.491 57.1464 132.542 57.6089 132.683 58.0473C133.011 59.1973 133.874 60.101 134.694 60.3065C135.222 60.4217 135.772 60.3962 136.287 60.2325C136.287 60.2325 138.855 58.888 139.459 56.8454C139.829 55.6121 139.968 54.6417 139.885 53.8232C144.283 55.4806 149.268 56.4158 155.44 55.6139C161.681 54.7917 167.653 52.7084 170.939 49.301C174.224 45.8936 175.376 41.8158 172.933 39.3288Z" fill="#9E2718" stroke="#1F1F1F" stroke-linecap="round" stroke-linejoin="round"/>
<path d="M37.3983 158.182C36.0427 160.891 38.752 164.586 42.202 167.912C45.652 171.238 54.8816 175.788 54.8816 175.788L57.289 167.736C57.289 167.736 51.4335 162.825 46.752 160.245C44.1964 158.832 40.102 156.702 37.3983 158.182Z" fill="#1F1F1F" stroke="#1F1F1F" stroke-linecap="round" stroke-linejoin="round"/>
<path d="M79.2151 141.186C84.6688 143.252 90.3919 144.52 96.2077 144.953L88.3818 86.8692L64.9818 85.3877L37.3984 158.182C40.1077 156.701 44.2021 158.832 46.7577 160.245C51.4392 162.838 57.2892 167.741 57.2892 167.741L74.2077 110.44L79.2151 141.186Z" fill="#C2E7FF" stroke="#C2E7FF" stroke-linecap="round" stroke-linejoin="round"/>
<path d="M142.398 92.5359C137.411 91.9192 134.085 90.8692 129.527 87.6081C124.97 84.347 122.076 83.2489 117.827 84.2211C116.164 84.5811 114.621 85.3622 113.346 86.4896C111.609 88.823 110.796 93.1359 112.592 96.1692C115.37 100.849 121.62 103.704 126.511 105.591C130.82 107.258 137.04 108.24 140.796 107.629C146.246 106.736 149.603 104.364 150.527 100.608C150.732 99.8405 150.783 99.0401 150.679 98.2526C149.316 94.9711 147.337 93.147 142.398 92.5359Z" fill="#1F1F1F" stroke="#1F1F1F" stroke-linecap="round" stroke-linejoin="round"/>
<path d="M145.344 132.256C145.344 132.256 145.407 101.711 145.407 98.5078C145.407 95.3041 144.729 91.8578 142.942 87.4856L141.157 83.1133L121.881 82.9893C121.82 84.2207 121.574 86.5615 119.789 90.0096C119.178 91.1911 115.05 97.8448 109.887 106.084C100.481 121.095 87.6387 141.369 86.3535 143.399C93.6532 145.167 101.215 145.582 108.665 144.624L127.116 111.01C127.116 111.01 129.087 138.537 129.641 141.676C130.194 144.815 132.048 147.897 135.492 150.545C138.937 153.193 166.102 169.882 166.102 169.882C164.931 166.802 165.12 163.574 165.978 160.274C166.779 157.197 169.016 154.024 171.152 151.776C173.491 149.313 175.831 148.258 176.57 148.443L145.344 132.256Z" fill="#F9DEDC" stroke="#F9DEDC" stroke-linecap="round" stroke-linejoin="round"/>
<path d="M109.887 106.084C100.481 121.095 87.6387 141.369 86.3535 143.399C91.0901 144.55 95.9475 145.13 100.822 145.127" stroke="#1F1F1F" stroke-linecap="round" stroke-linejoin="round"/>
<path d="M166.102 169.882C164.932 166.803 165.121 163.575 165.978 160.275C166.78 157.197 169.017 154.025 171.152 151.777C173.491 149.314 175.832 148.258 176.571 148.443L145.349 132.249" stroke="#1F1F1F" stroke-linecap="round" stroke-linejoin="round"/>
<path d="M114.208 143.652C100.872 146.634 86.9221 145.07 74.5781 139.208" stroke="#1F1F1F" stroke-linecap="round" stroke-linejoin="round"/>
<path d="M125.393 64.7617C125.948 66.1173 129.704 70.0451 134.691 70.4895C140.911 71.0451 143.16 68.5025 143.16 68.5025C143.16 68.5025 145.684 70.2654 147.5 71.6376C149.317 73.0099 154.561 77.0988 154.561 77.0988L153.474 90.1951L146.269 83.421C146.269 83.421 150.21 95.6765 150.702 98.3247C149.348 94.9914 147.369 93.1506 142.389 92.5358C137.41 91.921 134.076 90.8691 129.519 87.608C124.961 84.3469 122.067 83.2488 117.819 84.221C116.151 84.5847 114.603 85.3695 113.324 86.5006L117.943 77.9395L108.952 79.7913C108.952 79.7913 111.497 77.5062 112.585 71.4784C113.385 67.0451 113.171 65.6895 113.171 65.6895L125.393 64.7617Z" fill="white" stroke="#1F1F1F" stroke-linecap="round" stroke-linejoin="round"/>
<path d="M54.3889 85.1453C55.2518 81.0804 54.1426 76.4008 52.787 72.5823C51.4907 68.9175 49.1648 67.4101 48.5463 67.5138L48.4778 67.5341C46.8389 68.0453 47.3666 74.0601 48.6 78.1249C49.8333 82.1897 52.4407 87.373 54.1426 85.5156C54.2678 85.3705 54.3788 85.2136 54.474 85.0471L54.3889 85.1453Z" fill="#1F1F1F" stroke="#1F1F1F" stroke-linecap="round" stroke-linejoin="round"/>
<path d="M53.8152 66.0544C50.9412 68.847 35.7949 83.6673 35.7949 83.6673C35.7949 83.6673 27.0282 69.9544 26.1856 68.2729C25.569 67.0414 24.4634 66.3007 22.6153 66.3007C19.2819 66.3007 12.7597 66.1784 10.9134 66.1784C9.0671 66.1784 9.46895 67.4655 10.9134 67.7803C13.7449 68.3951 17.0727 69.2618 18.4282 69.6322C19.7838 70.0025 20.8912 71.1136 22.0004 73.8192C23.1097 76.5247 29.2449 88.971 31.2375 91.1859C34.5708 94.8803 37.6652 94.9488 41.9504 91.4322C46.7523 87.4914 53.8967 80.9229 57.3449 77.6377C60.793 74.3525 56.6875 63.2636 53.8152 66.0544Z" fill="#BC7B40" stroke="#1F1F1F" stroke-linecap="round" stroke-linejoin="round"/>
<path d="M48.4775 67.5335C48.4775 67.5335 54.8812 62.852 57.8368 61.0057C60.7924 59.1594 64.022 58.4131 69.2905 57.6724C75.5109 56.8094 83.4553 57.5483 87.0275 59.0261C89.8257 60.1854 91.6794 62.0613 93.172 64.4224C94.9794 67.2798 96.6331 71.0354 97.6812 73.6817C99.3479 77.9187 99.2812 78.4854 99.2812 78.4854L88.322 80.3372L89.3072 90.0687C89.3072 90.0687 76.5572 89.2057 70.3998 89.2057C64.2424 89.2057 58.6998 89.6983 57.0979 92.5391L61.1312 77.2687L54.3886 85.1502C55.2516 81.0854 54.1424 76.4057 52.7868 72.5872C51.4312 68.7687 48.9701 67.2872 48.4775 67.5335Z" fill="white" stroke="#1F1F1F" stroke-linecap="round" stroke-linejoin="round"/>
<path d="M76.4352 53.7391C77.5464 53.7391 78.9612 52.6428 79.2371 50.691C79.5612 48.3928 79.6297 46.1836 79.313 44.8095C78.1901 44.6258 77.0546 44.5298 75.9167 44.5225C73.9464 44.5225 72.5297 44.5836 71.0315 45.0965C70.5001 45.2817 69.7352 45.5928 68.9649 45.9206C68.4334 46.6706 68.1241 47.5114 68.1778 48.1965C68.3001 49.7965 70.3741 53.5539 70.3741 53.5539L69.4075 57.6688C69.3667 57.6688 69.326 57.6688 69.2852 57.6799C68.1464 57.8336 66.9686 58.028 65.9297 58.2039C67.2797 60.7854 70.9204 65.3002 75.6908 64.9465C80.776 64.5762 82.8852 60.6984 83.6964 58.1113C81.6442 57.7099 79.565 57.4623 77.476 57.3706L76.4352 53.7391Z" fill="#BC7B40" stroke="#1F1F1F" stroke-linecap="round" stroke-linejoin="round"/>
<path d="M70.3796 53.554C70.3796 53.554 67.937 51.3984 66.8277 49.1817C65.7185 46.9651 65.9666 44.6243 67.074 43.0225C68.1814 41.4206 69.7851 40.6836 71.8777 40.6836C73.9703 40.6836 73.2333 41.7947 72.7407 42.7762C72.2481 43.7577 71.9999 46.3484 72.124 48.4429C72.2481 50.5373 73.2722 51.4558 74.3462 50.7206C75.3314 50.0429 76.1425 48.7614 77.4574 48.8429C78.587 48.9132 79.274 50.0632 79.2111 50.7817C79.0833 52.2762 78.2851 53.8706 76.3796 54.2317C74.2037 54.641 71.9351 53.328 71.4518 51.7262C71.1055 50.6003 70.6574 48.0354 70.5259 46.841C70.4425 46.0817 69.7851 46.1225 69.3092 46.5947C69.0277 46.8743 68.8055 47.5447 68.8425 48.1132C68.9462 49.7891 69.724 50.6799 70.074 51.6651C70.2844 52.2723 70.3877 52.9114 70.3796 53.554Z" fill="#1F1F1F" stroke="#1F1F1F" stroke-linecap="round" stroke-linejoin="round"/>
<path d="M66.1726 47.1707C66.1726 47.1707 69.5374 45.6096 71.0374 45.0966C72.5374 44.5837 73.9522 44.5226 75.9226 44.5226C77.1753 44.5308 78.425 44.6473 79.6578 44.8707C79.6578 44.8707 82.5726 43.2281 83.6207 42.3874C84.6689 41.5466 84.667 39.8411 83.517 39.267C82.4485 38.7318 80.554 39.4096 78.8985 40.2207C78.5809 40.3675 78.2718 40.532 77.9726 40.7133C77.9726 40.7133 77.2837 39.9726 75.88 39.4818C74.1244 38.867 71.6707 39.0003 70.0078 39.7596C68.1559 40.6022 67.0448 41.4837 66.2726 43.1874C65.5003 44.8911 66.1726 47.1707 66.1726 47.1707Z" fill="white" stroke="#1F1F1F" stroke-linecap="round" stroke-linejoin="round"/>
<path d="M78.313 40.499C75.5834 41.9805 71.0371 45.0972 71.0371 45.0972" stroke="#1F1F1F" stroke-linecap="round" stroke-linejoin="round"/>
<path d="M46.7516 160.245C46.3812 162.584 41.7034 168.465 38.4997 170.56C35.296 172.654 28.6479 174.747 26.7997 175.364C24.9516 175.98 24.459 178.01 24.459 178.01H54.2738L57.2905 167.741C57.2905 167.741 51.9256 162.954 46.7516 160.245Z" fill="white" stroke="#1F1F1F" stroke-linecap="round" stroke-linejoin="round"/>
<path d="M37.3984 158.182C40.1077 156.701 44.2021 158.832 46.7577 160.245C51.4392 162.838 57.2892 167.742 57.2892 167.742L76.3744 103.158" stroke="#1F1F1F" stroke-linecap="round" stroke-linejoin="round"/>
<path d="M14.3301 178.012H190.976" stroke="#1F1F1F" stroke-linecap="round" stroke-linejoin="round"/>
<path d="M185.188 178.01C185.188 178.01 188.151 164.586 188.883 160.399C189.487 156.975 189.022 155.94 188.563 155.54C187.377 155.043 186.092 155.675 185.064 157.936C184.001 160.273 180.098 172.053 178.027 178.01H185.188Z" fill="#1F1F1F" stroke="#1F1F1F" stroke-linecap="round" stroke-linejoin="round"/>
<path d="M106.826 66.1482L107.898 66.0908" stroke="#1F1F1F" stroke-linecap="round" stroke-linejoin="round"/>
<path d="M162.242 83.1602L162.803 83.6379" stroke="#1F1F1F" stroke-linecap="round" stroke-linejoin="round"/>
<path d="M129.436 106.863L120.774 122.547" stroke="#1F1F1F" stroke-linecap="round" stroke-linejoin="round"/>
<path d="M188.266 155.349C187.84 155.136 177.192 150.447 174.34 149.189C173.16 149.9 172.086 150.773 171.148 151.782C169.561 153.449 167.918 155.636 166.852 157.912C167.502 158.467 168.835 159.684 169.67 161.143C171.152 163.736 173.003 166.932 173.487 170.626C173.857 173.445 172.376 174.567 170.777 175.676C169.179 176.786 168.185 176.538 168.068 178.015H185.189C185.189 178.015 188.152 164.591 188.883 160.404C189.615 156.217 188.759 155.602 188.266 155.349Z" fill="white" stroke="#1F1F1F" stroke-linecap="round" stroke-linejoin="round"/>
<path d="M185.188 178.01C185.188 178.01 188.151 164.586 188.883 160.399C189.487 156.975 189.022 155.94 188.563 155.54C187.377 155.043 186.092 155.675 185.064 157.936C184.001 160.273 180.098 172.053 178.027 178.01H185.188Z" stroke="#1F1F1F" stroke-linecap="round" stroke-linejoin="round"/>
<path d="M89.3076 90.0732L90.9706 106.086" stroke="#1F1F1F" stroke-linecap="round" stroke-linejoin="round"/>
</g>
<defs>
<clipPath id="clip0_714_1753">
<rect width="182.689" height="155.678" fill="white" transform="translate(8.7041 22.7783)"/>
</clipPath>
</defs>
</svg>